<svg xmlns="http://www.w3.org/2000/svg" width="424" height="282">
    <defs>
        <linearGradient id="353d8rjuua" x1="50%" x2="0%" y1="86.603%" y2="0%">
            <stop offset="0%" stop-color="#FF8315"/>
            <stop offset="100%" stop-color="#FFD200"/>
        </linearGradient>
    </defs>
    <path fill="#FFF" fill-rule="evenodd" d="M212 0c77.872 0 141 63.128 141 141s-63.128 141-141 141S71 218.872 71 141 134.128 0 212 0z" opacity=".102"/>
    <path fill="url(#353d8rjuua)" d="M212 0c77.872 0 141 63.128 141 141s-63.128 141-141 141S71 218.872 71 141 134.128 0 212 0z"/>
    <path fill="#FFF" fill-rule="evenodd" d="M212 15.996c69.038 0 125.004 55.966 125.004 125.004 0 69.038-55.966 125.004-125.004 125.004-69.038 0-125.004-55.966-125.004-125.004 0-69.038 55.966-125.004 125.004-125.004z" opacity=".302"/>
    <path fill="url(#353d8rjuua)" d="M212 15.996c69.038 0 125.004 55.966 125.004 125.004 0 69.038-55.966 125.004-125.004 125.004-69.038 0-125.004-55.966-125.004-125.004 0-69.038 55.966-125.004 125.004-125.004z"/>
    <path fill="#FFF" fill-rule="evenodd" d="M212 31c60.751 0 110 49.249 110 110s-49.249 110-110 110-110-49.249-110-110S151.249 31 212 31z"/>
    <path fill="url(#353d8rjuua)" d="M212 31c60.751 0 110 49.249 110 110s-49.249 110-110 110-110-49.249-110-110S151.249 31 212 31z"/>
</svg>
