<svg xmlns="http://www.w3.org/2000/svg" width="424" height="282">
    <defs>
        <linearGradient id="gskyry0lpa" x1="50%" x2="0%" y1="86.603%" y2="0%">
            <stop offset="0%" stop-color="#FF8315"/>
            <stop offset="100%" stop-color="#FFD200"/>
        </linearGradient>
        <linearGradient id="zsf8o2ux7b" x1="50%" x2="0%" y1="86.603%" y2="0%">
            <stop offset="1%" stop-color="#A1A1A1"/>
            <stop offset="100%" stop-color="#D8D8D8"/>
        </linearGradient>
        <linearGradient id="8ro713ftod" x1="50%" x2="0%" y1="86.603%" y2="0%">
            <stop offset="0%" stop-color="#A2A2A2"/>
            <stop offset="100%" stop-color="#E1E1E1"/>
        </linearGradient>
        <filter id="rloqrf2ajc" width="269" height="97" x="109" y="159" filterUnits="userSpaceOnUse">
            <feOffset dx="-1.315" dy="-2.696" in="SourceAlpha"/>
            <feGaussianBlur result="blurOut" stdDeviation="3.873"/>
            <feFlood flood-color="#000" result="floodOut"/>
            <feComposite in="floodOut" in2="blurOut" operator="atop"/>
            <feComponentTransfer>
                <feFuncA slope=".06" type="linear"/>
            </feComponentTransfer>
            <feMerge>
                <feMergeNode/>
                <feMergeNode in="SourceGraphic"/>
            </feMerge>
        </filter>
    </defs>
    <path fill="#FFF" fill-rule="evenodd" d="M211.547 1.456c63.511 0 114.997 51.486 114.997 114.997s-51.486 114.998-114.997 114.998S96.549 179.964 96.549 116.453 148.036 1.456 211.547 1.456z" opacity=".102"/>
    <path fill="url(#gskyry0lpa)" d="M211.547 1.456c63.511 0 114.997 51.486 114.997 114.997s-51.486 114.998-114.997 114.998S96.549 179.964 96.549 116.453 148.036 1.456 211.547 1.456z"/>
    <path fill="#FFF" fill-rule="evenodd" d="M211.547 14.509c56.302 0 101.944 45.642 101.944 101.944s-45.642 101.944-101.944 101.944-101.944-45.642-101.944-101.944S155.245 14.509 211.547 14.509z" opacity=".302"/>
    <path fill="url(#gskyry0lpa)" d="M211.547 14.509c56.302 0 101.944 45.642 101.944 101.944s-45.642 101.944-101.944 101.944-101.944-45.642-101.944-101.944S155.245 14.509 211.547 14.509z"/>
    <path fill="#FFF" fill-rule="evenodd" d="M211.562 26.729c49.545 0 89.709 40.164 89.709 89.709 0 49.544-40.164 89.708-89.709 89.708-49.544 0-89.708-40.164-89.708-89.708 0-49.545 40.164-89.709 89.708-89.709z"/>
    <path fill="url(#gskyry0lpa)" d="M211.562 26.729c49.545 0 89.709 40.164 89.709 89.709 0 49.544-40.164 89.708-89.709 89.708-49.544 0-89.708-40.164-89.708-89.708 0-49.545 40.164-89.709 89.708-89.709z"/>
    <path fill="#FFF" fill-rule="evenodd" d="M256.641 189.406H213c3.116 3.664 5 8.408 5 13.594 0 11.598-9.402 21-21 21H76c-11.598 0-21-9.402-21-21s9.402-21 21-21h72.966c-1.502-2.408-2.372-5.25-2.372-8.297 0-8.672 7.03-15.703 15.703-15.703h94.344c8.672 0 15.703 7.031 15.703 15.703 0 8.673-7.031 15.703-15.703 15.703z" opacity=".4"/>
    <path fill="url(#zsf8o2ux7b)" d="M256.641 189.406H213c3.116 3.664 5 8.408 5 13.594 0 11.598-9.402 21-21 21H76c-11.598 0-21-9.402-21-21s9.402-21 21-21h72.966c-1.502-2.408-2.372-5.25-2.372-8.297 0-8.672 7.03-15.703 15.703-15.703h94.344c8.672 0 15.703 7.031 15.703 15.703 0 8.673-7.031 15.703-15.703 15.703z"/>
    <g filter="url(#rloqrf2ajc)">
        <path fill="#FFF" fill-rule="evenodd" d="M343 218h-69.957c2.103 2.672 3.362 6.04 3.362 9.704 0 8.674-7.031 15.705-15.705 15.705H140.3c-8.674 0-15.705-7.031-15.705-15.705 0-8.673 7.031-15.704 15.705-15.704h27.121c-3.891-3.812-6.309-9.122-6.309-15 0-11.598 9.402-21 21-21H343c11.598 0 21 9.402 21 21s-9.402 21-21 21z" opacity=".6"/>
    </g>
    <path fill="url(#8ro713ftod)" d="M343 218h-69.957c2.103 2.672 3.362 6.04 3.362 9.704 0 8.674-7.031 15.705-15.705 15.705H140.3c-8.674 0-15.705-7.031-15.705-15.705 0-8.673 7.031-15.704 15.705-15.704h27.121c-3.891-3.812-6.309-9.122-6.309-15 0-11.598 9.402-21 21-21H343c11.598 0 21 9.402 21 21s-9.402 21-21 21z"/>
</svg>
