<svg xmlns="http://www.w3.org/2000/svg" width="424" height="282">
    <defs>
        <linearGradient id="j1y7uuokua" x1="0%" x2="0%" y1="100%" y2="0%">
            <stop offset="1%" stop-color="#3C5473"/>
            <stop offset="100%" stop-color="#5999C6"/>
        </linearGradient>
        <linearGradient id="60o40sd2eb" x1="50%" x2="0%" y1="86.603%" y2="0%">
            <stop offset="0%" stop-color="#9F9F9F" stop-opacity=".4"/>
            <stop offset="100%" stop-color="#F0F0F0"/>
            <stop offset="100%" stop-color="#F0F0F0"/>
        </linearGradient>
        <linearGradient id="jyt9qg6pxc" x1="50%" x2="0%" y1="86.603%" y2="0%">
            <stop offset="0%" stop-color="#898989" stop-opacity=".4"/>
            <stop offset="100%" stop-color="#E4E4E4"/>
        </linearGradient>
        <linearGradient id="vs5ppbjhpd" x1="0%" x2="0%" y1="100%" y2="0%">
            <stop offset="0%" stop-color="#4E709F"/>
            <stop offset="100%" stop-color="#81BBE4"/>
        </linearGradient>
    </defs>
    <path fill="#B38D8C" fill-rule="evenodd" d="M193 138.679c1.913 1.105 2.569 3.551 1.464 5.465l-16 27.712c-1.104 1.914-3.551 2.569-5.464 1.465-1.913-1.105-2.569-3.551-1.464-5.465l16-27.712c1.104-1.914 3.551-2.569 5.464-1.465z"/>
    <path fill="url(#j1y7uuokua)" d="M193 138.679c1.913 1.105 2.569 3.551 1.464 5.465l-16 27.712c-1.104 1.914-3.551 2.569-5.464 1.465-1.913-1.105-2.569-3.551-1.464-5.465l16-27.712c1.104-1.914 3.551-2.569 5.464-1.465z"/>
    <path fill="#FFF" fill-opacity=".302" fill-rule="evenodd" d="M277.269 149.789v.242H146.708v-.032c-.424.011-.846.032-1.272.032-25.909 0-46.913-21.003-46.913-46.913v-.05c0-25.909 21.004-46.913 46.913-46.913 3.788 0 7.468.461 10.996 1.309 3.345-26.739 26.142-47.433 53.788-47.433 22.385 0 41.598 13.566 49.877 32.924 3.899-.891 7.953-1.377 12.122-1.377 29.949 0 54.227 24.278 54.227 54.226 0 28.245-21.598 51.436-49.177 53.985z"/>
    <path fill="url(#60o40sd2eb)" d="M277.269 149.789v.242H146.708v-.032c-.424.011-.846.032-1.272.032-25.909 0-46.913-21.003-46.913-46.913v-.05c0-25.909 21.004-46.913 46.913-46.913 3.788 0 7.468.461 10.996 1.309 3.345-26.739 26.142-47.433 53.788-47.433 22.385 0 41.598 13.566 49.877 32.924 3.899-.891 7.953-1.377 12.122-1.377 29.949 0 54.227 24.278 54.227 54.226 0 28.245-21.598 51.436-49.177 53.985z"/>
    <path fill="#FFF" fill-opacity=".302" fill-rule="evenodd" d="M122.613 161.031l.168-.026-42.723.025-.069.001-.066-.001-2.79.001v-.138c-15.411-1.44-27.474-14.405-27.474-30.192 0-16.75 13.579-30.329 30.33-30.329 12.422 0 23.094 7.471 27.783 18.163 4.139-3.411 9.432-5.471 15.215-5.471h.01c13.236 0 23.966 10.73 23.966 23.967v.034c0 13.236-7.307 23.966-24.35 23.966zm.198-.031z"/>
    <path fill="url(#jyt9qg6pxc)" d="M122.613 161.031l.168-.026-42.723.025-.069.001-.066-.001-2.79.001v-.138c-15.411-1.44-27.474-14.405-27.474-30.192 0-16.75 13.579-30.329 30.33-30.329 12.422 0 23.094 7.471 27.783 18.163 4.139-3.411 9.432-5.471 15.215-5.471h.01c13.236 0 23.966 10.73 23.966 23.967v.034c0 13.236-7.307 23.966-24.35 23.966zm.198-.031z"/>
    <path fill="#FFF" fill-opacity=".302" fill-rule="evenodd" d="M345.012 96.916v.115l-2.334-.001-.053.001-.056-.001-35.702-.021.141.022c-14.241 0-20.347-8.966-20.347-20.026v-.029c0-11.06 8.966-20.026 20.027-20.026h.008c4.833 0 9.255 1.723 12.711 4.575 3.918-8.936 12.836-15.181 23.218-15.181 13.997 0 25.344 11.347 25.344 25.344 0 13.191-10.08 24.025-22.957 25.228zm-38.169.089z" opacity=".8"/>
    <path fill="url(#60o40sd2eb)" d="M345.012 96.916v.115l-2.334-.001-.053.001-.056-.001-35.702-.021.141.022c-14.241 0-20.347-8.966-20.347-20.026v-.029c0-11.06 8.966-20.026 20.027-20.026h.008c4.833 0 9.255 1.723 12.711 4.575 3.918-8.936 12.836-15.181 23.218-15.181 13.997 0 25.344 11.347 25.344 25.344 0 13.191-10.08 24.025-22.957 25.228zm-38.169.089z"/>
    <path fill="#B38D8C" fill-rule="evenodd" d="M229.464 215.366c1.913 1.104 2.569 3.551 1.464 5.464l-26 45.033c-1.104 1.913-3.551 2.569-5.464 1.464-1.913-1.104-2.569-3.551-1.464-5.464l26-45.033c1.105-1.913 3.551-2.569 5.464-1.464z"/>
    <path fill="url(#j1y7uuokua)" d="M229.464 215.366c1.913 1.104 2.569 3.551 1.464 5.464l-26 45.033c-1.104 1.913-3.551 2.569-5.464 1.464-1.913-1.104-2.569-3.551-1.464-5.464l26-45.033c1.105-1.913 3.551-2.569 5.464-1.464z"/>
    <path fill="#B38D8C" fill-rule="evenodd" d="M273.464 110.366c1.913 1.104 2.569 3.551 1.464 5.464l-26 45.033c-1.104 1.913-3.551 2.569-5.464 1.464-1.913-1.104-2.569-3.551-1.464-5.464l26-45.033c1.105-1.913 3.551-2.569 5.464-1.464z"/>
    <path fill="url(#vs5ppbjhpd)" d="M273.464 110.366c1.913 1.104 2.569 3.551 1.464 5.464l-26 45.033c-1.104 1.913-3.551 2.569-5.464 1.464-1.913-1.104-2.569-3.551-1.464-5.464l26-45.033c1.105-1.913 3.551-2.569 5.464-1.464z"/>
    <path fill="#B38D8C" fill-rule="evenodd" d="M240.995 166.342c1.914 1.105 2.569 3.551 1.464 5.464l-6 10.393c-1.104 1.913-3.55 2.568-5.464 1.464-1.913-1.105-2.568-3.551-1.464-5.464l6-10.393c1.105-1.913 3.551-2.568 5.464-1.464z"/>
    <path fill="url(#vs5ppbjhpd)" d="M240.995 166.342c1.914 1.105 2.569 3.551 1.464 5.464l-6 10.393c-1.104 1.913-3.55 2.568-5.464 1.464-1.913-1.105-2.568-3.551-1.464-5.464l6-10.393c1.105-1.913 3.551-2.568 5.464-1.464z"/>
    <path fill="#B38D8C" fill-rule="evenodd" d="M207.25 168.211c1.435.828 1.927 2.663 1.098 4.098l-13.5 23.382c-.828 1.435-2.663 1.927-4.098 1.098-1.435-.828-1.927-2.663-1.098-4.098l13.5-23.382c.828-1.435 2.663-1.927 4.098-1.098z"/>
    <path fill="url(#vs5ppbjhpd)" d="M207.25 168.211c1.435.828 1.927 2.663 1.098 4.098l-13.5 23.382c-.828 1.435-2.663 1.927-4.098 1.098-1.435-.828-1.927-2.663-1.098-4.098l13.5-23.382c.828-1.435 2.663-1.927 4.098-1.098z"/>
    <path fill="#B38D8C" fill-rule="evenodd" d="M187.5 200.67c1.435.828 1.927 2.663 1.098 4.098l-2 3.464c-.828 1.435-2.663 1.927-4.098 1.098-1.435-.828-1.927-2.663-1.098-4.098l2-3.464c.828-1.435 2.663-1.927 4.098-1.098z"/>
    <path fill="url(#vs5ppbjhpd)" d="M187.5 200.67c1.435.828 1.927 2.663 1.098 4.098l-2 3.464c-.828 1.435-2.663 1.927-4.098 1.098-1.435-.828-1.927-2.663-1.098-4.098l2-3.464c.828-1.435 2.663-1.927 4.098-1.098z"/>
    <path fill="#B38D8C" fill-rule="evenodd" d="M136.5 189.742c1.435.828 1.927 2.663 1.098 4.098l-10 17.32c-.828 1.435-2.663 1.927-4.098 1.098-1.435-.828-1.927-2.663-1.098-4.098l10-17.32c.828-1.435 2.663-1.927 4.098-1.098z"/>
    <path fill="url(#vs5ppbjhpd)" d="M136.5 189.742c1.435.828 1.927 2.663 1.098 4.098l-10 17.32c-.828 1.435-2.663 1.927-4.098 1.098-1.435-.828-1.927-2.663-1.098-4.098l10-17.32c.828-1.435 2.663-1.927 4.098-1.098z"/>
    <path fill="#B38D8C" fill-rule="evenodd" d="M296.25 204.211c1.435.828 1.927 2.663 1.098 4.098l-13.5 23.382c-.828 1.435-2.663 1.927-4.098 1.098-1.435-.828-1.927-2.663-1.098-4.098l13.5-23.382c.828-1.435 2.663-1.927 4.098-1.098z"/>
    <path fill="url(#j1y7uuokua)" d="M296.25 204.211c1.435.828 1.927 2.663 1.098 4.098l-13.5 23.382c-.828 1.435-2.663 1.927-4.098 1.098-1.435-.828-1.927-2.663-1.098-4.098l13.5-23.382c.828-1.435 2.663-1.927 4.098-1.098z"/>
</svg>
