<svg xmlns="http://www.w3.org/2000/svg" width="424" height="282">
    <defs>
        <linearGradient id="yfrohd67za" x1="50%" x2="0%" y1="86.603%" y2="0%">
            <stop offset="0%" stop-color="#97C0DD"/>
            <stop offset="100%" stop-color="#DAF8FF"/>
        </linearGradient>
        <linearGradient id="4vcd3xsiwb" x1="0%" x2="0%" y1="100%" y2="0%">
            <stop offset="0%" stop-color="#97BDCB" stop-opacity=".2"/>
            <stop offset="10%" stop-color="#98B4BD" stop-opacity=".28"/>
            <stop offset="23%" stop-color="#98ABAF" stop-opacity=".4"/>
            <stop offset="24%" stop-color="#99ABAF" stop-opacity=".4"/>
            <stop offset="100%" stop-color="#F0F0F0"/>
            <stop offset="100%" stop-color="#F0F0F0"/>
        </linearGradient>
        <linearGradient id="i6iylwbn4c" x1="50%" x2="0%" y1="86.603%" y2="0%">
            <stop offset="0%" stop-color="#97B6CA" stop-opacity=".4"/>
            <stop offset="100%" stop-color="#E4E4E4"/>
        </linearGradient>
        <linearGradient id="ovnat2ylgd" x1="50%" x2="0%" y1="86.603%" y2="0%">
            <stop offset="0%" stop-color="#61A2D0"/>
            <stop offset="100%" stop-color="#A8DFEB"/>
        </linearGradient>
        <linearGradient id="kkwa48pyhe" x1="50%" x2="0%" y1="86.603%" y2="0%">
            <stop offset="0%" stop-color="#8A9DB3" stop-opacity=".4"/>
            <stop offset="100%" stop-color="#F0F0F0"/>
            <stop offset="100%" stop-color="#F0F0F0"/>
        </linearGradient>
    </defs>
    <path fill="#FFF" fill-rule="evenodd" d="M257 121c11.046 0 20 8.954 20 20s-8.954 20-20 20-20-8.954-20-20 8.954-20 20-20z"/>
    <path fill="url(#yfrohd67za)" d="M257 121c11.046 0 20 8.954 20 20s-8.954 20-20 20-20-8.954-20-20 8.954-20 20-20z"/>
    <path fill="#FFF" fill-rule="evenodd" d="M170 235c8.284 0 15 6.716 15 15 0 8.284-6.716 15-15 15-8.284 0-15-6.716-15-15 0-8.284 6.716-15 15-15z"/>
    <path fill="url(#yfrohd67za)" d="M170 235c8.284 0 15 6.716 15 15 0 8.284-6.716 15-15 15-8.284 0-15-6.716-15-15 0-8.284 6.716-15 15-15z"/>
    <path fill="#FFF" fill-opacity=".302" fill-rule="evenodd" d="M277.269 149.789v.242H146.708v-.032c-.424.011-.846.032-1.272.032-25.909 0-46.913-21.003-46.913-46.913v-.05c0-25.909 21.004-46.913 46.913-46.913 3.788 0 7.468.461 10.996 1.309 3.345-26.739 26.142-47.433 53.788-47.433 22.385 0 41.598 13.566 49.877 32.924 3.899-.891 7.953-1.377 12.122-1.377 29.949 0 54.227 24.278 54.227 54.226 0 28.245-21.598 51.436-49.177 53.985z"/>
    <path fill="url(#4vcd3xsiwb)" d="M277.269 149.789v.242H146.708v-.032c-.424.011-.846.032-1.272.032-25.909 0-46.913-21.003-46.913-46.913v-.05c0-25.909 21.004-46.913 46.913-46.913 3.788 0 7.468.461 10.996 1.309 3.345-26.739 26.142-47.433 53.788-47.433 22.385 0 41.598 13.566 49.877 32.924 3.899-.891 7.953-1.377 12.122-1.377 29.949 0 54.227 24.278 54.227 54.226 0 28.245-21.598 51.436-49.177 53.985z"/>
    <path fill="#FFF" fill-opacity=".302" fill-rule="evenodd" d="M122.613 161.031l.168-.026-42.723.025-.069.001-.066-.001-2.79.001v-.138c-15.411-1.44-27.474-14.405-27.474-30.192 0-16.75 13.579-30.329 30.33-30.329 12.422 0 23.094 7.471 27.783 18.163 4.139-3.411 9.432-5.471 15.215-5.471h.01c13.236 0 23.966 10.73 23.966 23.967v.034c0 13.236-7.307 23.966-24.35 23.966zm.198-.031z"/>
    <path fill="url(#i6iylwbn4c)" d="M122.613 161.031l.168-.026-42.723.025-.069.001-.066-.001-2.79.001v-.138c-15.411-1.44-27.474-14.405-27.474-30.192 0-16.75 13.579-30.329 30.33-30.329 12.422 0 23.094 7.471 27.783 18.163 4.139-3.411 9.432-5.471 15.215-5.471h.01c13.236 0 23.966 10.73 23.966 23.967v.034c0 13.236-7.307 23.966-24.35 23.966zm.198-.031z"/>
    <path fill="#FFF" fill-rule="evenodd" d="M130 188c3.314 0 6 2.686 6 6s-2.686 6-6 6-6-2.686-6-6 2.686-6 6-6z"/>
    <path fill="url(#ovnat2ylgd)" d="M130 188c3.314 0 6 2.686 6 6s-2.686 6-6 6-6-2.686-6-6 2.686-6 6-6z"/>
    <path fill="#FFF" fill-opacity=".302" fill-rule="evenodd" d="M345.012 96.916v.115l-2.334-.001-.053.001-.056-.001-35.702-.021.141.022c-14.241 0-20.347-8.966-20.347-20.026v-.029c0-11.06 8.966-20.026 20.027-20.026h.008c4.833 0 9.255 1.723 12.711 4.575 3.918-8.936 12.836-15.181 23.218-15.181 13.997 0 25.344 11.347 25.344 25.344 0 13.191-10.08 24.025-22.957 25.228zm-38.169.089z" opacity=".8"/>
    <path fill="url(#kkwa48pyhe)" d="M345.012 96.916v.115l-2.334-.001-.053.001-.056-.001-35.702-.021.141.022c-14.241 0-20.347-8.966-20.347-20.026v-.029c0-11.06 8.966-20.026 20.027-20.026h.008c4.833 0 9.255 1.723 12.711 4.575 3.918-8.936 12.836-15.181 23.218-15.181 13.997 0 25.344 11.347 25.344 25.344 0 13.191-10.08 24.025-22.957 25.228zm-38.169.089z"/>
    <path fill="#FFF" fill-rule="evenodd" d="M176 159c4.971 0 9 4.029 9 9s-4.029 9-9 9-9-4.029-9-9 4.029-9 9-9z"/>
    <path fill="url(#yfrohd67za)" d="M176 159c4.971 0 9 4.029 9 9s-4.029 9-9 9-9-4.029-9-9 4.029-9 9-9z"/>
    <path fill="#FFF" fill-rule="evenodd" d="M269 256c3.866 0 7 3.134 7 7s-3.134 7-7 7-7-3.134-7-7 3.134-7 7-7z"/>
    <path fill="url(#yfrohd67za)" d="M269 256c3.866 0 7 3.134 7 7s-3.134 7-7 7-7-3.134-7-7 3.134-7 7-7z"/>
    <path fill="#FFF" fill-rule="evenodd" d="M229 183c6.627 0 12 5.373 12 12s-5.373 12-12 12-12-5.373-12-12 5.373-12 12-12z"/>
    <path fill="url(#ovnat2ylgd)" d="M229 183c6.627 0 12 5.373 12 12s-5.373 12-12 12-12-5.373-12-12 5.373-12 12-12z"/>
</svg>
