<svg xmlns="http://www.w3.org/2000/svg" width="424" height="282">
    <defs>
        <linearGradient id="uz0a5tvdga" x1="50%" x2="0%" y1="86.603%" y2="0%">
            <stop offset="0%" stop-color="#9B9B9B"/>
            <stop offset="100%" stop-color="#E7E7E7"/>
        </linearGradient>
        <linearGradient id="r0eror76fb" x1="50%" x2="0%" y1="86.603%" y2="0%">
            <stop offset="0%" stop-color="#64605F"/>
            <stop offset="100%" stop-color="#A6A6A6"/>
        </linearGradient>
    </defs>
    <path fill="#B38D8C" fill-rule="evenodd" d="M291.954 212.68v.344H103.569v-.046c-.614.016-1.225.046-1.843.046-37.404 0-67.726-30.322-67.726-67.726 0-37.404 30.322-67.726 67.726-67.726 5.469 0 10.78.666 15.874 1.89C122.42 40.869 155.32 11 195.219 11c32.302 0 60.026 19.576 71.973 47.509 5.631-1.287 11.485-1.99 17.506-1.99h.033c43.218 0 78.253 35.035 78.253 78.253 0 40.781-31.2 74.26-71.03 77.908z"/>
    <path fill="url(#uz0a5tvdga)" d="M291.954 212.68v.344H103.569v-.046c-.614.016-1.225.046-1.843.046-37.404 0-67.726-30.322-67.726-67.726 0-37.404 30.322-67.726 67.726-67.726 5.469 0 10.78.666 15.874 1.89C122.42 40.869 155.32 11 195.219 11c32.302 0 60.026 19.576 71.973 47.509 5.631-1.287 11.485-1.99 17.506-1.99h.033c43.218 0 78.253 35.035 78.253 78.253 0 40.781-31.2 74.26-71.03 77.908z"/>
    <path fill="#B38D8C" fill-rule="evenodd" d="M346.564 256c-.68 0-1.354-.02-2.026-.051V256H223.594v-.012c-.155.002-.307.012-.463.012C198.206 256 178 235.794 178 210.869v-.024c0-24.926 20.206-45.132 45.131-45.132 3.656 0 7.206.446 10.61 1.267 4.333-23.345 24.791-41.027 49.391-41.027 26.046 0 47.461 19.816 49.998 45.193 4.232-1.373 8.744-2.125 13.434-2.125 24.018 0 43.489 19.471 43.489 43.49 0 24.018-19.471 43.489-43.489 43.489z"/>
    <path fill="url(#r0eror76fb)" d="M346.564 256c-.68 0-1.354-.02-2.026-.051V256H223.594v-.012c-.155.002-.307.012-.463.012C198.206 256 178 235.794 178 210.869v-.024c0-24.926 20.206-45.132 45.131-45.132 3.656 0 7.206.446 10.61 1.267 4.333-23.345 24.791-41.027 49.391-41.027 26.046 0 47.461 19.816 49.998 45.193 4.232-1.373 8.744-2.125 13.434-2.125 24.018 0 43.489 19.471 43.489 43.49 0 24.018-19.471 43.489-43.489 43.489z"/>
</svg>
