<svg xmlns="http://www.w3.org/2000/svg" width="424" height="282">
    <defs>
        <linearGradient id="suypuxl32a" x1="50%" x2="0%" y1="86.603%" y2="0%">
            <stop offset="0%" stop-color="#FF8315"/>
            <stop offset="100%" stop-color="#FFD200"/>
        </linearGradient>
        <linearGradient id="a10cv5l1db" x1="0%" x2="0%" y1="100%" y2="0%">
            <stop offset="0%" stop-color="#FEECB3" stop-opacity=".4"/>
            <stop offset="10%" stop-color="#CFC6A9" stop-opacity=".36"/>
            <stop offset="22%" stop-color="#9F9F9F" stop-opacity=".3"/>
            <stop offset="22%" stop-color="#A0A0A0" stop-opacity=".302"/>
            <stop offset="41%" stop-color="#C8C8C8" stop-opacity=".47"/>
            <stop offset="100%" stop-color="#F0F0F0"/>
        </linearGradient>
        <linearGradient id="yizxmivhuc" x1="50%" x2="0%" y1="86.603%" y2="0%">
            <stop offset="0%" stop-color="#B27C00" stop-opacity=".2"/>
            <stop offset="10%" stop-color="#9E8345" stop-opacity=".27"/>
            <stop offset="26%" stop-color="#898989" stop-opacity=".37"/>
            <stop offset="30%" stop-color="#8E8E8E" stop-opacity=".4"/>
            <stop offset="100%" stop-color="#E4E4E4"/>
        </linearGradient>
        <linearGradient id="il6u7t3cvd" x1="50%" x2="0%" y1="86.603%" y2="0%">
            <stop offset="0%" stop-color="#E18F00"/>
            <stop offset="100%" stop-color="#EAC101"/>
        </linearGradient>
        <linearGradient id="s64dbcnghe" x1="0%" x2="24.192%" y1="97.03%" y2="0%">
            <stop offset="0%" stop-color="#DC9103" stop-opacity=".2"/>
            <stop offset="9%" stop-color="#BE9851" stop-opacity=".27"/>
            <stop offset="28%" stop-color="#9F9F9E" stop-opacity=".4"/>
            <stop offset="28%" stop-color="#9F9F9F" stop-opacity=".4"/>
            <stop offset="100%" stop-color="#F0F0F0"/>
            <stop offset="100%" stop-color="#F0F0F0"/>
        </linearGradient>
    </defs>
    <path fill="#B38D8C" fill-rule="evenodd" d="M221.796 160H232l-43 66 12.121-50H184l13-49h45l-20.204 33z"/>
    <path fill="url(#suypuxl32a)" d="M221.796 160H232l-43 66 12.121-50H184l13-49h45l-20.204 33z"/>
    <path fill="#FFF" fill-opacity=".302" fill-rule="evenodd" d="M277.269 149.789v.242H146.708v-.032c-.424.011-.846.032-1.272.032-25.909 0-46.913-21.003-46.913-46.913v-.05c0-25.909 21.004-46.913 46.913-46.913 3.788 0 7.468.461 10.996 1.309 3.345-26.739 26.142-47.433 53.788-47.433 22.385 0 41.598 13.566 49.877 32.924 3.899-.891 7.953-1.377 12.122-1.377 29.949 0 54.227 24.278 54.227 54.226 0 28.245-21.598 51.436-49.177 53.985z"/>
    <path fill="url(#a10cv5l1db)" d="M277.269 149.789v.242H146.708v-.032c-.424.011-.846.032-1.272.032-25.909 0-46.913-21.003-46.913-46.913v-.05c0-25.909 21.004-46.913 46.913-46.913 3.788 0 7.468.461 10.996 1.309 3.345-26.739 26.142-47.433 53.788-47.433 22.385 0 41.598 13.566 49.877 32.924 3.899-.891 7.953-1.377 12.122-1.377 29.949 0 54.227 24.278 54.227 54.226 0 28.245-21.598 51.436-49.177 53.985z"/>
    <path fill="#FFF" fill-opacity=".302" fill-rule="evenodd" d="M122.613 161.031l.168-.026-42.723.025-.069.001-.066-.001-2.79.001v-.138c-15.411-1.44-27.474-14.405-27.474-30.192 0-16.75 13.579-30.329 30.33-30.329 12.422 0 23.094 7.471 27.783 18.163 4.139-3.411 9.432-5.471 15.215-5.471h.01c13.236 0 23.966 10.73 23.966 23.967v.034c0 13.236-7.307 23.966-24.35 23.966zm.198-.031z"/>
    <path fill="url(#yizxmivhuc)" d="M122.613 161.031l.168-.026-42.723.025-.069.001-.066-.001-2.79.001v-.138c-15.411-1.44-27.474-14.405-27.474-30.192 0-16.75 13.579-30.329 30.33-30.329 12.422 0 23.094 7.471 27.783 18.163 4.139-3.411 9.432-5.471 15.215-5.471h.01c13.236 0 23.966 10.73 23.966 23.967v.034c0 13.236-7.307 23.966-24.35 23.966zm.198-.031z"/>
    <path fill="#B38D8C" fill-rule="evenodd" d="M331.034 99.685h3.518l-14.827 22.758 4.18-17.24h-5.904l4.483-16.897H338l-6.966 11.379z"/>
    <path fill="url(#il6u7t3cvd)" d="M331.034 99.685h3.518l-14.827 22.758 4.18-17.24h-5.904l4.483-16.897H338l-6.966 11.379z"/>
    <path fill="#FFF" fill-opacity=".302" fill-rule="evenodd" d="M345.012 96.916v.115l-2.334-.001-.053.001-.056-.001-35.702-.021.141.022c-14.241 0-20.347-8.966-20.347-20.026v-.029c0-11.06 8.966-20.026 20.027-20.026h.008c4.833 0 9.255 1.723 12.711 4.575 3.918-8.936 12.836-15.181 23.218-15.181 13.997 0 25.344 11.347 25.344 25.344 0 13.191-10.08 24.025-22.957 25.228zm-38.169.089z" opacity=".8"/>
    <path fill="url(#s64dbcnghe)" d="M345.012 96.916v.115l-2.334-.001-.053.001-.056-.001-35.702-.021.141.022c-14.241 0-20.347-8.966-20.347-20.026v-.029c0-11.06 8.966-20.026 20.027-20.026h.008c4.833 0 9.255 1.723 12.711 4.575 3.918-8.936 12.836-15.181 23.218-15.181 13.997 0 25.344 11.347 25.344 25.344 0 13.191-10.08 24.025-22.957 25.228zm-38.169.089z"/>
</svg>
